#!OML:ASF E:\Style3\Style3.ASF
:FULLY-SPECIFIED
:DEGREES
2973
root -0.67243 17.8934 0.749392 -765.962 86.53 -782.113
lowerback -3.72917 -3.54735 -6.44661
upperback -10.1029 -4.42311 0.558409
thorax -8.04554 -1.50029 4.27873
lowerneck -12.0015 4.92623 -2.75121
upperneck 10.9676 5.15863 19.4204
head 4.68866 3.91487 7.00242
rclavicle -4.96962e-014 -1.27222e-014
rhumerus -15.5323 33.3615 -751.886
rradius 77.8242
rwrist -25.3569
rhand -27.4153 27.988
rfingers 7.12502
rthumb -0.821162 -1.99019
lclavicle -4.96962e-014 -1.27222e-014
lhumerus 324.764 -60.8864 1195.75
lradius 87.4613
lwrist 9.54287
lhand -17.5368 2.93032
lfingers 7.12502
lthumb 8.71732 32.7303
rfemur -17.4035 8.17875 20.0881
rtibia 11.9539
rfoot -10.223 -16.1719
rtoes -17.5667
lfemur -13.3216 2.11402 -14.326
ltibia 5.29647
lfoot -7.41839 3.80705
ltoes -9.92405
2974
root -0.67605 17.8954 0.764642 -758.69 86.0801 -774.837
lowerback -3.79863 -3.51541 -6.45048
upperback -10.1651 -4.37736 0.502851
thorax -8.08418 -1.47541 4.21914
lowerneck -12.0122 4.97347 -2.78647
upperneck 11.1454 5.20242 19.4062
head 4.73765 3.94219 7.01431
rclavicle 4.59193e-014 5.56597e-015
rhumerus -14.4607 31.3966 -750.201
rradius 78.0996
rwrist -24.2297
rhand -27.6628 28.024
rfingers 7.12502
rthumb -1.0602 -1.95308
lclavicle 4.59193e-014 5.56597e-015
lhumerus 328.68 -62.1001 1194
lradius 88.5653
lwrist 9.93218
lhand -17.7092 3.42863
lfingers 7.12502
lthumb 8.55097 33.2355
rfemur -17.4162 8.21726 20.2139
rtibia 11.7761
rfoot -9.97091 -15.6503
rtoes -17.9567
lfemur -13.3347 2.62025 -14.3891
ltibia 5.58798
lfoot -7.62001 3.97082
ltoes -10.8977
2975
root -0.683619 17.8968 0.782966 -754.971 85.8038 -771.109
lowerback -3.71371 -3.6131 -6.496
upperback -10.2575 -4.51829 0.476338
thorax -8.21954 -1.53378 4.22696
lowerneck -12.0365 5.07443 -2.76133
upperneck 11.3691 5.3132 19.2538
head 4.80027 3.99593 6.97623
rclavicle -5.19822e-014 -2.46493e-014
rhumerus -13.3951 29.8407 -748.474
rradius 78.636
rwrist -23.2498
rhand -28.1619 28.3726
rfingers 7.12502
rthumb -1.54231 -1.60156
lclavicle -5.19822e-014 -2.46493e-014
lhumerus 333.017 -63.3073 1191.6
lradius 89.6159
lwrist 10.1339
lhand -18.7519 4.05772
lfingers 7.12502
lthumb 7.54465 33.9032
rfemur -17.4028 8.28058 20.3014
rtibia 11.6181
rfoot -9.8481 -15.3532
rtoes -17.6967
lfemur -13.4019 2.86286 -14.4412
ltibia 5.86076
lfoot -7.73289 4.34186
ltoes -12.8824
2976
root -0.689944 17.898 0.798658 -751.525 85.5983 -767.668
lowerback -3.71305 -3.70336 -6.48625
upperback -10.3202 -4.64462 0.381101
thorax -8.28313 -1.5961 4.12469
lowerneck -12.1635 5.16433 -2.57888
upperneck 11.7078 5.37813 18.9429
head 4.93171 4.03222 6.86782
rclavicle -2.10712e-014 1.82882e-014
rhumerus -12.313 28.2776 -746.912
rradius 79.0326
rwrist -22.3576
rhand -28.6947 28.9379
rfingers 7.12502
rthumb -2.05684 -1.03189
lclavicle -2.10712e-014 1.82882e-014
lhumerus 337.938 -64.3858 1188.48
lradius 90.5804
lwrist 10.3277
lhand -19.7597 4.06396
lfingers 7.12502
lthumb 6.5718 33.942
rfemur -17.4571 8.34021 20.2985
rtibia 11.5709
rfoot -9.77345 -15.0975
rtoes -17.4357
lfemur -13.4017 3.05443 -14.5015
ltibia 5.95615
lfoot -7.79339 4.54346
ltoes -13.0573
2977
root -0.694961 17.8985 0.810966 -748.78 85.3409 -764.935
lowerback -3.58713 -3.8764 -6.75865
upperback -10.4697 -4.87995 0.609824
thorax -8.46059 -1.66745 4.53584
lowerneck -12.2625 5.3386 -2.47119
upperneck 12.1747 5.57218 18.4163
head 5.08534 4.1115 6.7121
rclavicle 2.48481e-014 -2.54444e-014
rhumerus -10.5771 26.7224 -745.008
rradius 79.527
rwrist -21.9876
rhand -28.5307 28.8987
rfingers 7.12502
rthumb -1.89847 -1.07262
lclavicle 2.48481e-014 -2.54444e-014
lhumerus 343.181 -64.5128 1185.21
lradius 91.6933
lwrist 10.6693
lhand -20.0009 4.08939
lfingers 7.12502
lthumb 6.33897 33.9745
rfemur -17.5677 8.42004 20.3354
rtibia 11.6247
rfoot -9.80644 -14.844
rtoes -17.3385
lfemur -13.2804 3.27983 -14.4555
ltibia 5.8094
lfoot -7.73898 4.66112
ltoes -12.654
